<?xml version="1.0" encoding="UTF-8" standalone="no"?>
<!DOCTYPE svg PUBLIC "-//W3C//DTD SVG 1.1//EN" "http://www.w3.org/Graphics/SVG/1.1/DTD/svg11.dtd">
<svg width="100%" height="100%" viewBox="0 0 500 300" version="1.1" xmlns="http://www.w3.org/2000/svg" xmlns:xlink="http://www.w3.org/1999/xlink" xml:space="preserve" xmlns:serif="http://www.serif.com/" style="fill-rule:evenodd;clip-rule:evenodd;stroke-linejoin:round;stroke-miterlimit:2;">
    <g>
        <path d="M215.5,72.5C261.348,68.944 299.848,83.944 331,117.5C363.986,159.426 370.986,205.426 352,255.5C323.788,312.867 277.621,339.034 213.5,334C162.968,325.458 127.802,297.624 108,250.5C87.513,181.948 107.012,128.115 166.5,89C181.884,80.372 198.217,74.872 215.5,72.5Z" style="fill:rgb(253,253,254);"/>
    </g>
    <g>
        <path d="M268.5,165.5C269.873,165.343 271.207,165.51 272.5,166C282.509,177.374 287.176,190.707 286.5,206C286.703,220.056 282.87,232.889 275,244.5C268.254,248.149 264.421,245.982 263.5,238C267.319,230.851 270.486,223.351 273,215.5C273.747,208.118 273.414,200.785 272,193.5C269.022,187.046 266.189,180.546 263.5,174C264.034,170.422 265.701,167.589 268.5,165.5Z" style="fill:rgb(33,53,244);"/>
    </g>
    <g>
        <path d="M287.5,140.5C290.421,140.146 292.754,141.146 294.5,143.5C310.62,167.86 316.12,194.527 311,223.5C308.563,239.608 303.23,254.608 295,268.5C291.333,273.833 287.667,273.833 284,268.5C282.543,265.634 282.21,262.634 283,259.5C306.332,223.846 306.332,188.179 283,152.5C281.87,147.375 283.37,143.375 287.5,140.5Z" style="fill:rgb(30,52,244);"/>
    </g>
    <g>
        <path d="M598.509,227.555C601.729,246.466 612.726,253.28 631.5,248C636.995,244.989 641.662,241.156 645.5,236.5C649.398,237.975 653.398,239.142 657.5,240C658.428,240.388 659.095,241.055 659.5,242C651.527,257.165 638.86,264.998 621.5,265.5C599.751,263.889 586.251,252.556 581,231.5C577.902,215.774 580.902,201.441 590,188.5C601.418,176.697 615.251,172.53 631.5,176C648.828,181.001 658.661,192.501 661,210.5C661.815,215.352 661.648,220.019 660.5,224.5L660.256,224.504C639.485,224.845 618.9,225.843 598.5,227.5L598.509,227.555ZM736.5,149.5L752.5,149.5L752.5,262.5L738.5,262.5C738.808,260.076 738.474,257.743 737.5,255.5C722.989,267.184 707.656,268.351 691.5,259C679.533,248.616 673.867,235.449 674.5,219.5C673.678,197.851 683.344,183.351 703.5,176C715.607,173.426 726.441,175.926 736,183.5C736.5,172.172 736.667,160.838 736.5,149.5ZM842.5,175.5C859.884,172.46 874.384,177.46 886,190.5C887.774,193.715 889.274,197.048 890.5,200.5C885.548,202.321 880.548,203.988 875.5,205.5C867.703,191.954 856.37,187.788 841.5,193C831.174,201.752 827.34,212.919 830,226.5C833.414,246.794 844.914,253.627 864.5,247C868.623,244.066 871.29,240.232 872.5,235.5C878.196,236.394 883.863,237.394 889.5,238.5C885.264,254.222 874.931,263.055 858.5,265C833.789,266.887 818.623,255.72 813,231.5C809.67,215.804 812.67,201.471 822,188.5C827.987,182.651 834.82,178.317 842.5,175.5ZM993.5,229.5C996.986,245.755 1006.99,252.255 1023.5,249C1025.09,248.138 1026.75,247.471 1028.5,247C1032.7,243.799 1036.53,240.299 1040,236.5C1044.71,238.35 1049.55,239.684 1054.5,240.5C1050.71,251.787 1043.04,259.287 1031.5,263C1003.99,269.831 985.491,259.998 976,233.5C972.905,219.072 974.905,205.405 982,192.5C992.929,177.963 1007.43,172.463 1025.5,176C1044.34,180.819 1054.34,192.985 1055.5,212.5L1055.51,212.548C1056.48,216.668 1056.82,220.986 1056.5,225.5L993.5,225.5L993.5,229.5ZM1099.5,175.5C1116.95,172.473 1131.45,177.473 1143,190.5C1144.77,193.715 1146.27,197.048 1147.5,200.5C1142.44,202.465 1137.27,204.132 1132,205.5C1122.72,189.722 1110.22,186.556 1094.5,196C1085.13,209.7 1083.96,224.2 1091,239.5C1098.23,249.352 1107.73,252.185 1119.5,248C1122.27,246.533 1124.77,244.7 1127,242.5C1127.88,239.785 1129.38,237.451 1131.5,235.5C1136.42,236.604 1141.25,237.937 1146,239.5C1143.16,251.023 1135.99,258.856 1124.5,263C1089.75,269.435 1071.09,254.935 1068.5,219.5C1069.01,205.664 1074.01,193.83 1083.5,184C1088.48,180.344 1093.82,177.511 1099.5,175.5ZM1163.56,149.488C1168.35,148.51 1173.33,148.18 1178.5,148.5L1178.5,186.5L1178.57,186.436C1189.91,175.596 1203.23,172.452 1218.5,177C1232.67,183.482 1239.67,194.649 1239.5,210.5L1239.51,210.705C1240.5,228.13 1240.83,245.729 1240.5,263.5L1222.5,263.5L1222.5,212.5L1222.49,212.45C1220.08,195.29 1210.41,188.474 1193.5,192C1186.74,195.089 1182.58,200.255 1181,207.5C1180.5,225.83 1180.33,244.164 1180.5,262.5L1163.5,262.5L1163.5,149.5L1163.56,149.488ZM887.5,149.5L979.5,149.5L979.5,164.5L941.5,164.5L941.5,262.5L925.5,262.5L925.5,164.5L887.5,164.5L887.5,149.5ZM525.5,177.5L539.5,177.5C539.334,181.846 539.501,186.179 540,190.5C547.611,179.456 558.111,175.123 571.5,177.5L571.5,192.5C554.391,190.112 544.558,197.445 542,214.5C541.5,230.497 541.333,246.497 541.5,262.5L525.5,262.5L525.5,177.5ZM776.5,177.5L793.5,177.5L793.5,262.5L776.5,262.5L776.5,177.5ZM426.5,262.5L426.5,149.5C445.17,149.333 463.836,149.5 482.5,150C497.353,153.347 506.187,162.514 509,177.5C511.24,192.782 506.74,205.616 495.5,216C490.652,219.257 485.342,221.09 479.568,221.495L479.5,221.5C467.678,222.495 455.678,222.828 443.5,222.5C443.829,236.01 443.496,249.344 442.5,262.5L426.5,262.5ZM1223.55,259.936L1223.54,260.112C1223.54,259.987 1223.55,259.862 1223.55,259.738L1223.55,259.936ZM1223.57,258.162L1223.57,258.297L1223.57,258.162L1223.57,258.04L1223.57,258.162ZM1223.58,257.177C1223.58,257.363 1223.58,257.55 1223.58,257.737C1223.58,257.55 1223.58,257.364 1223.58,257.177ZM1223.61,254.455C1223.61,254.768 1223.6,255.083 1223.6,255.397C1223.6,255.083 1223.61,254.769 1223.61,254.455ZM1223.61,253.831L1223.61,254.028L1223.61,254.156C1223.61,254.048 1223.61,253.94 1223.61,253.831ZM1223.62,252.905C1223.62,253.083 1223.62,253.261 1223.61,253.438L1223.61,253.635C1223.61,253.391 1223.62,253.148 1223.62,252.905ZM1223.62,250.49C1223.62,250.359 1223.62,250.227 1223.62,250.098L1223.62,250.294L1223.62,250.49ZM707.5,190.5C725.096,187.602 735.263,194.935 738,212.5C739.023,222.662 737.356,232.329 733,241.5C724.283,251.101 714.117,252.934 702.5,247C694.846,239.513 691.18,230.346 691.5,219.5C690.909,206.333 696.242,196.666 707.5,190.5ZM1223.62,247.547L1223.62,247.743C1223.62,247.867 1223.62,247.991 1223.62,248.116C1223.62,247.926 1223.62,247.736 1223.62,247.547ZM1223.59,243.627C1223.59,243.848 1223.6,244.07 1223.6,244.291C1223.6,244.069 1223.59,243.848 1223.59,243.627ZM1223.5,237.564L1223.51,237.759C1223.54,239.374 1223.56,240.992 1223.58,242.611C1223.56,240.928 1223.54,239.245 1223.5,237.564ZM1223.49,237.05L1223.5,237.173L1223.5,237.369C1223.5,237.263 1223.49,237.156 1223.49,237.05ZM1223.33,230.737L1223.34,230.888C1223.33,230.773 1223.33,230.658 1223.33,230.543L1223.33,230.737ZM993.36,229.282C993.37,229.299 993.381,229.315 993.391,229.332C993.384,229.321 993.377,229.31 993.37,229.299L993.36,229.282ZM993.272,229.134L993.285,229.157L993.272,229.134ZM1223.23,227.623L1223.24,227.818C1223.25,228.257 1223.27,228.696 1223.28,229.135C1223.26,228.632 1223.25,228.128 1223.23,227.623ZM993.22,229.043L993.21,229.026C993.22,229.043 993.229,229.06 993.239,229.077L993.22,229.043ZM993.172,228.956L993.191,228.991L993.172,228.956ZM992.973,228.551C992.983,228.575 992.994,228.599 993.005,228.623L992.997,228.605C992.992,228.593 992.986,228.581 992.981,228.569L992.973,228.551ZM992.918,228.426C992.922,228.435 992.926,228.444 992.93,228.453L992.918,228.426ZM992.844,228.244C992.848,228.253 992.851,228.262 992.855,228.271L992.844,228.244ZM992.76,228.012C992.769,228.041 992.779,228.069 992.789,228.097L992.783,228.079C992.775,228.057 992.767,228.035 992.76,228.012ZM992.724,227.904L992.727,227.916L992.724,227.904ZM992.598,227.463L992.604,227.483L992.598,227.463ZM598.458,227.467L598.479,227.483L598.458,227.467ZM598.378,227.4C598.398,227.416 598.417,227.433 598.437,227.45L598.427,227.441C598.411,227.427 598.394,227.414 598.378,227.4ZM992.563,227.308L992.568,227.333L992.563,227.308ZM992.522,227.108L992.525,227.127L992.522,227.108ZM598.088,227.113L598.098,227.124L598.088,227.113ZM598.02,227.032C598.025,227.039 598.031,227.046 598.037,227.052C598.031,227.046 598.025,227.039 598.02,227.032ZM992.49,226.924L992.485,226.891C992.486,226.902 992.488,226.913 992.49,226.924ZM992.459,226.708L992.454,226.671C992.456,226.683 992.458,226.696 992.459,226.708ZM992.45,226.63L992.445,226.59L992.45,226.63ZM992.419,226.288C992.425,226.383 992.433,226.477 992.443,226.57L992.441,226.549C992.432,226.463 992.424,226.376 992.419,226.288ZM597.658,226.44C597.664,226.455 597.671,226.47 597.678,226.484C597.671,226.47 597.664,226.455 597.658,226.44ZM597.58,226.242C597.582,226.247 597.584,226.253 597.586,226.259C597.584,226.253 597.582,226.247 597.58,226.242ZM992.407,226.057C992.408,226.095 992.41,226.133 992.412,226.171C992.41,226.133 992.408,226.095 992.407,226.057ZM597.493,225.929C597.51,226.005 597.529,226.079 597.551,226.152C597.53,226.083 597.512,226.013 597.496,225.942L597.493,225.929ZM992.403,225.911C992.403,225.923 992.403,225.935 992.404,225.948L992.403,225.911ZM597.486,225.892L597.483,225.88C597.484,225.884 597.485,225.888 597.486,225.892ZM992.402,225.784C992.402,225.791 992.402,225.798 992.402,225.805C992.402,225.798 992.402,225.791 992.402,225.784ZM597.461,225.754L597.458,225.728L597.461,225.754ZM992.403,225.636C992.403,225.672 992.402,225.707 992.402,225.742L992.402,225.721C992.402,225.686 992.403,225.65 992.404,225.615L992.403,225.636ZM597.454,225.703L597.451,225.677C597.452,225.685 597.453,225.694 597.454,225.703ZM597.449,225.664L597.446,225.638C597.447,225.647 597.448,225.655 597.449,225.664ZM992.408,225.465C992.407,225.494 992.406,225.523 992.405,225.551L992.406,225.53C992.407,225.501 992.408,225.473 992.409,225.444L992.408,225.465ZM597.435,225.514L597.433,225.494C597.434,225.501 597.434,225.508 597.435,225.514ZM992.42,225.236C992.416,225.298 992.413,225.36 992.41,225.422L992.411,225.401C992.414,225.346 992.417,225.291 992.42,225.236ZM597.428,225.14C597.425,225.223 597.425,225.304 597.428,225.384C597.425,225.304 597.425,225.223 597.428,225.14ZM992.427,225.141C992.426,225.163 992.424,225.185 992.422,225.206L992.424,225.185C992.426,225.163 992.427,225.141 992.429,225.119L992.427,225.141ZM597.437,224.985C597.436,224.993 597.436,225.002 597.435,225.01C597.436,225.002 597.436,224.993 597.437,224.985ZM1223.09,224.125C1223.1,224.314 1223.11,224.504 1223.12,224.694C1223.11,224.505 1223.1,224.315 1223.09,224.125ZM597.482,224.605C597.478,224.627 597.475,224.648 597.472,224.669C597.475,224.648 597.478,224.627 597.482,224.605ZM992.478,224.657L992.484,224.612L992.478,224.657ZM597.49,224.558L597.495,224.53C597.493,224.539 597.491,224.548 597.49,224.558ZM1222.95,220.997C1222.95,220.875 1222.94,220.753 1222.94,220.631L1222.95,220.825L1222.95,220.997ZM1222.78,217.53L1222.79,217.724C1222.82,218.265 1222.85,218.805 1222.88,219.346C1222.85,218.739 1222.82,218.135 1222.78,217.53ZM1222.7,215.981C1222.72,216.368 1222.74,216.755 1222.76,217.143L1222.77,217.337C1222.75,216.82 1222.72,216.304 1222.69,215.788L1222.7,215.981ZM1222.65,215.014C1222.66,215.207 1222.67,215.399 1222.68,215.594L1222.67,215.401C1222.66,215.207 1222.65,215.014 1222.64,214.82L1222.65,215.014ZM642.036,209.694C641.354,209.782 640.67,209.868 639.985,209.95L639.892,209.962L639.824,209.97C639.21,210.044 638.594,210.115 637.978,210.184L637.824,210.202L637.802,210.204C637.568,210.23 637.334,210.256 637.099,210.281L636.961,210.296C636.903,210.303 636.846,210.309 636.788,210.315L636.629,210.332C636.179,210.38 635.728,210.427 635.277,210.472C635.121,210.488 634.965,210.504 634.809,210.519C634.522,210.548 634.234,210.576 633.946,210.603C633.683,210.628 633.421,210.653 633.158,210.677C632.855,210.705 632.551,210.733 632.247,210.76L632.111,210.772C632.054,210.777 631.996,210.782 631.938,210.787L631.892,210.791C631.728,210.805 631.564,210.819 631.4,210.833L631.243,210.847L631.173,210.853C630.755,210.888 630.338,210.922 629.919,210.955C629.468,210.991 629.016,211.025 628.563,211.058C628.355,211.074 628.147,211.089 627.939,211.104C627.851,211.11 627.763,211.116 627.675,211.122L627.584,211.128L627.41,211.141C627.352,211.145 627.293,211.149 627.235,211.152L627.061,211.164L626.97,211.17C626.764,211.184 626.557,211.198 626.351,211.211L626.187,211.222L626.13,211.225C625.881,211.241 625.633,211.257 625.385,211.272L625.312,211.276C625.254,211.28 625.196,211.283 625.137,211.287L624.962,211.297L624.787,211.307C624.729,211.311 624.67,211.314 624.612,211.318L624.437,211.328L624.288,211.336C624.008,211.352 623.728,211.367 623.447,211.382C623.291,211.39 623.135,211.398 622.98,211.406L622.859,211.413C622.8,211.416 622.742,211.418 622.683,211.421L622.585,211.426C622.49,211.431 622.395,211.436 622.3,211.44C622.135,211.448 621.97,211.456 621.805,211.464L621.63,211.472C621.455,211.48 621.279,211.488 621.102,211.496L620.927,211.503C620.868,211.506 620.809,211.508 620.751,211.511L620.575,211.518L620.399,211.525C620.34,211.528 620.282,211.53 620.223,211.532L620.047,211.539L619.973,211.542C619.775,211.55 619.575,211.558 619.375,211.565L619.343,211.566C619.056,211.577 618.769,211.587 618.481,211.597C618.322,211.602 618.164,211.607 618.005,211.612C616.863,211.648 615.72,211.677 614.574,211.698L614.397,211.701C614.043,211.707 613.688,211.712 613.334,211.717C612.944,211.722 612.555,211.727 612.165,211.73C612.019,211.732 611.875,211.733 611.73,211.734C611.495,211.736 611.261,211.737 611.026,211.738L610.848,211.739L610.686,211.739C610.547,211.74 610.406,211.74 610.265,211.74L610.137,211.741L609.959,211.741C609.87,211.741 609.782,211.741 609.693,211.741C609.333,211.741 608.972,211.74 608.612,211.738C608.169,211.736 607.728,211.733 607.286,211.729C606.256,211.719 605.226,211.703 604.194,211.681C603.675,211.67 603.155,211.657 602.634,211.643L602.53,211.64C602.368,211.636 602.206,211.631 602.043,211.627C601.934,211.624 601.826,211.62 601.718,211.617C601.114,211.599 600.507,211.578 599.9,211.556C599.645,211.546 599.393,211.536 599.14,211.526C598.927,211.518 598.714,211.509 598.5,211.5C601.16,195.018 610.827,187.851 627.5,190C637.673,192.507 643.007,199.007 643.5,209.5C643.013,209.566 642.525,209.631 642.036,209.694ZM1011.5,189.5C1027.82,188.129 1036.82,195.463 1038.5,211.5L993.5,211.5C994.805,200.175 1000.81,192.842 1011.5,189.5ZM475.5,205.5L443.5,205.5L443.5,165.5L476.5,165.5C487.283,167.632 492.616,174.298 492.5,185.5C492.659,194.703 488.659,201.203 480.5,205C478.866,205.494 477.199,205.66 475.5,205.5ZM1178.32,184.319C1178.33,184.498 1178.35,184.677 1178.36,184.856C1178.35,184.677 1178.33,184.498 1178.32,184.319ZM1178.28,183.771C1178.29,183.903 1178.3,184.035 1178.31,184.166C1178.3,184.08 1178.3,183.994 1178.29,183.908L1178.28,183.771ZM1178.24,183.222C1178.25,183.359 1178.26,183.497 1178.27,183.634L1178.26,183.496C1178.25,183.359 1178.24,183.222 1178.23,183.084L1178.24,183.222ZM1178.12,181.624C1178.15,182.061 1178.18,182.497 1178.21,182.933C1178.18,182.498 1178.15,182.061 1178.12,181.624ZM1178.03,180.182C1178.04,180.354 1178.05,180.525 1178.06,180.696C1178.05,180.525 1178.04,180.354 1178.03,180.182ZM1177.9,178.069L1177.89,177.951L1177.88,177.811C1177.89,177.897 1177.89,177.983 1177.9,178.069ZM1177.8,176.265L1177.81,176.376L1177.8,176.265ZM1177.72,174.571C1177.74,174.946 1177.75,175.321 1177.77,175.695C1177.76,175.368 1177.74,175.04 1177.73,174.712L1177.72,174.571ZM1177.66,173.293C1177.67,173.369 1177.67,173.444 1177.67,173.52L1177.67,173.435L1177.66,173.293ZM1177.42,164.487C1177.44,165.914 1177.47,167.332 1177.51,168.74C1177.47,167.333 1177.44,165.915 1177.42,164.487ZM1177.4,163.46L1177.4,163.313C1177.4,163.444 1177.4,163.576 1177.4,163.708L1177.4,163.607C1177.4,163.558 1177.4,163.509 1177.4,163.46ZM776.5,147.5L793.5,147.5L793.5,163.5L776.5,163.5L776.5,147.5ZM1177.38,160.211C1177.38,160.436 1177.38,160.66 1177.38,160.884C1177.38,160.659 1177.38,160.435 1177.38,160.211ZM1177.38,158.723C1177.38,158.811 1177.38,158.898 1177.38,158.986L1177.38,158.873L1177.38,158.723ZM1177.39,156.329C1177.39,156.484 1177.38,156.639 1177.38,156.796C1177.38,156.69 1177.38,156.585 1177.39,156.479L1177.39,156.329ZM1177.39,156.028L1177.39,155.878C1177.39,155.928 1177.39,155.978 1177.39,156.028L1177.39,156.179C1177.39,156.129 1177.39,156.078 1177.39,156.028ZM1177.4,154.974C1177.4,155.19 1177.39,155.407 1177.39,155.623C1177.39,155.408 1177.4,155.191 1177.4,154.974ZM1177.42,153.159C1177.42,153.228 1177.42,153.297 1177.42,153.366C1177.42,153.298 1177.42,153.229 1177.42,153.159ZM1177.43,152.856L1177.43,152.704C1177.43,152.768 1177.43,152.831 1177.43,152.895L1177.43,152.856ZM1177.45,151.556L1177.45,151.487L1177.46,151.335L1177.45,151.487L1177.45,151.556Z" style="fill:white;"/>
    </g>
    <g>
        <path d="M191.5,150.5C195.09,150.544 197.59,152.211 199,155.5C202.909,177.203 206.909,198.87 211,220.5C212.517,214.254 215.35,208.754 219.5,204C224.372,202.612 229.372,202.112 234.5,202.5C236.567,189.718 243.4,186.052 255,191.5C260.867,199.237 261.867,207.57 258,216.5C253.872,223.489 248.039,225.322 240.5,222C237.909,219.643 236.242,216.809 235.5,213.5C231.116,213.174 226.783,213.508 222.5,214.5C219.963,221.072 217.296,227.572 214.5,234C210.22,236.477 206.72,235.644 204,231.5C200.518,211.125 196.851,190.792 193,170.5C188.969,197.78 185.302,225.113 182,252.5C177.509,260.446 173.176,260.446 169,252.5C166.56,239.466 164.06,226.466 161.5,213.5C154.492,213.666 147.492,213.5 140.5,213C137.923,209.595 137.923,206.262 140.5,203C144.167,202.833 147.833,202.667 151.5,202.5C160.848,200.253 167.015,203.587 170,212.5C171.826,221.472 173.493,230.472 175,239.5C178.667,211.831 182.334,184.165 186,156.5C186.727,153.309 188.561,151.309 191.5,150.5Z" style="fill:rgb(33,53,244);"/>
    </g>
</svg>
